<?xml version="1.0" standalone="no"?>
<!DOCTYPE svg PUBLIC "-//W3C//DTD SVG 1.0//EN" "http://www.w3.org/TR/2001/REC-SVG-20010904/DTD/svg10.dtd">
<svg xmlns="http://www.w3.org/2000/svg" xmlns:xlink="http://www.w3.org/1999/xlink" id="body_1" width="24" height="24">

<g transform="matrix(0.24552432 0 0 0.24552432 0 0)">
	<g>
        <path d="M48.875 0C 21.883 0 0 21.882 0 48.875C 0 75.868 21.883 97.75 48.875 97.75C 75.867004 97.75 97.75 75.868 97.75 48.875C 97.75 21.882004 75.867 0 48.875 0zM25.676 69.248L12.365 69.248L12.365 65.215004L25.675999 65.215004L25.675999 69.248zM25.676 64.006L12.365 64.006L12.365 59.97L25.675999 59.97L25.675999 64.006zM25.676 58.762L12.365 58.762L12.365 54.727L25.675999 54.727L25.675999 58.762zM25.676 53.516L12.365 53.516L12.365 49.482998L25.675999 49.482998L25.675999 53.516zM25.676 48.271L12.365 48.271L12.365 44.237L25.675999 44.237L25.675999 48.271zM40.604 69.248L27.291 69.248L27.291 65.215004L40.604 65.215004L40.604 69.248zM40.604 64.006L27.291 64.006L27.291 59.97L40.604 59.97L40.604 64.006zM40.604 58.762L27.291 58.762L27.291 54.727L40.604 54.727L40.604 58.762zM55.531 69.248L42.219 69.248L42.219 65.215004L55.532 65.215004L55.531 69.248zM55.531 64.006L42.219 64.006L42.219 59.97L55.532 59.97L55.531 64.006zM55.531 58.762L42.219 58.762L42.219 54.727L55.532 54.727L55.531 58.762zM55.531 53.516L42.219 53.516L42.219 49.482998L55.532 49.482998L55.531 53.516zM55.531 48.271L42.219 48.271L42.219 44.237L55.532 44.237L55.531 48.271zM55.531 43.026L42.219 43.026L42.219 38.992L55.532 38.992L55.531 43.026zM55.531 37.783L42.219 37.783L42.219 33.748L55.532 33.748L55.531 37.783zM70.457 69.248L57.145 69.248L57.145 65.215004L70.458 65.215004L70.457 69.248zM70.457 64.006L57.145 64.006L57.145 59.97L70.458 59.97L70.457 64.006zM70.457 58.762L57.145 58.762L57.145 54.727L70.458 54.727L70.457 58.762zM70.457 53.516L57.145 53.516L57.145 49.482998L70.458 49.482998L70.457 53.516zM70.457 48.271L57.145 48.271L57.145 44.237L70.458 44.237L70.457 48.271zM85.385 69.248L72.072 69.248L72.072 65.215004L85.384 65.215004L85.384 69.248zM85.385 64.006L72.072 64.006L72.072 59.97L85.384 59.97L85.384 64.006zM85.385 58.759L72.072 58.759L72.072 54.725L85.384 54.725L85.384 58.759zM85.385 53.516L72.072 53.516L72.072 49.48L85.384 49.48L85.384 53.516zM85.385 48.271L72.072 48.271L72.072 44.234L85.384 44.234L85.384 48.271zM85.385 43.025L72.072 43.025L72.072 38.992L85.384 38.992L85.384 43.025zM85.385 37.78L72.072 37.78L72.072 33.746998L85.384 33.746998L85.384 37.78zM72.072 32.536L72.072 28.501999L85.384 28.501999L85.384 32.536L72.072 32.536z" stroke="none" fill="#000000" fill-rule="nonzero" />
	</g>
</g>
</svg>